<svg xmlns="http://www.w3.org/2000/svg" viewBox="0 0 32 32" width="32" height="32">
  <defs>
    <linearGradient id="g" x1="0" y1="0" x2="1" y2="1">
      <stop offset="0" stop-color="#f43f5e"/>
      <stop offset="1" stop-color="#8b5cf6"/>
    </linearGradient>
  </defs>
  <rect width="32" height="32" rx="8" fill="url(#g)"/>
  <g fill="none" stroke="#fff" stroke-width="2" stroke-linecap="round" stroke-linejoin="round">
    <rect x="7" y="13" width="18" height="5" rx="1"/>
    <path d="M16 13v12M9 18v6a1.5 1.5 0 0 0 1.5 1.5h11A1.5 1.5 0 0 0 23 24v-6"/>
    <path d="M16 13s-1.6-4-4-3.4C10 10 10.4 13 13 13h3zM16 13s1.6-4 4-3.4C22 10 21.6 13 19 13h-3z"/>
  </g>
</svg>
